<svg xmlns="http://www.w3.org/2000/svg" viewBox="0 0 128 128"><g id="Layer_2" data-name="Layer 2"><g id="Icon"><circle cx="64" cy="64" r="64" style="fill:#f8f8f8"/><path d="M64,0a64,64,0,1,0,64,64A64,64,0,0,0,64,0Zm54.59,49.43a85,85,0,0,1-16.78,27.81,89.24,89.24,0,0,0-1.16-33.3A88.8,88.8,0,0,0,86.39,12.13,56.69,56.69,0,0,1,118.59,49.43ZM64,7.5A56.45,56.45,0,0,1,78.68,9.44,85.12,85.12,0,0,1,94.37,37.88,89.41,89.41,0,0,0,65,22.22a88.64,88.64,0,0,0-26.22-3.94c-3,0-5.81.14-8.42.4A56.16,56.16,0,0,1,64,7.5ZM57.83,64a6.17,6.17,0,0,1,4.41-5.91V29.94a1.17,1.17,0,0,1,1.17-1.18h1.18a1.17,1.17,0,0,1,1.17,1.18V58.09A6.17,6.17,0,0,1,64,70.17,6.08,6.08,0,0,1,60.42,69L42.89,79.13a1.75,1.75,0,0,1-2.4-.65l-.79-1.36a1.76,1.76,0,0,1,.65-2.41L57.86,64.6Q57.83,64.3,57.83,64ZM7.5,64A56.3,56.3,0,0,1,24.15,24a86,86,0,0,1,14.58-1.25,83.83,83.83,0,0,1,17.83,1.9A88.69,88.69,0,0,0,7.88,70.55,56.75,56.75,0,0,1,7.5,64ZM9.41,78.57A85,85,0,0,1,26.19,50.76a88.73,88.73,0,0,0,15.42,65.11A56.69,56.69,0,0,1,9.41,78.57ZM64,120.5a56.45,56.45,0,0,1-14.68-1.94A85.12,85.12,0,0,1,33.63,90.12a89.41,89.41,0,0,0,29.42,15.66,88.64,88.64,0,0,0,26.22,3.94c3,0,5.81-.14,8.42-.4A56.16,56.16,0,0,1,64,120.5ZM103.85,104a86,86,0,0,1-14.58,1.25,83.83,83.83,0,0,1-17.83-1.9A89.19,89.19,0,0,0,99.7,85.71a89,89,0,0,0,20.42-28.26A56.43,56.43,0,0,1,103.85,104Z" style="fill:#4054b2"/><circle cx="64" cy="64" r="2.64" style="fill:#4054b2"/></g></g></svg>